<?xml version="1.0" standalone="no"?>
<!DOCTYPE svg PUBLIC "-//W3C//DTD SVG 20010904//EN"
 "http://www.w3.org/TR/2001/REC-SVG-20010904/DTD/svg10.dtd">
<svg version="1.0" xmlns="http://www.w3.org/2000/svg"
 width="1080.000000pt" height="1080.000000pt" viewBox="0 0 1080.000000 1080.000000"
 preserveAspectRatio="xMidYMid meet">

<g transform="translate(0.000000,1080.000000) scale(0.100000,-0.100000)"
fill="#080808" stroke="none">
<path d="M1865 10024 c-135 -37 -242 -128 -306 -259 -21 -44 -24 -63 -24 -170
0 -116 1 -122 33 -188 55 -112 144 -190 272 -238 46 -18 205 -18 250 0 116 44
185 97 243 184 20 29 39 68 44 87 l9 35 852 0 c469 0 852 -2 852 -5 0 -4 -17
-12 -37 -19 -83 -30 -289 -129 -408 -197 -614 -348 -1104 -864 -1421 -1495
-41 -81 -74 -150 -74 -153 0 -3 -13 -34 -29 -68 -31 -68 -85 -218 -121 -338
-12 -41 -26 -86 -31 -100 -45 -141 -100 -484 -115 -722 l-7 -96 -129 -4 -130
-3 -29 -33 -29 -32 0 -371 0 -372 36 -33 35 -34 369 0 368 0 31 30 c20 20 32
44 36 73 3 23 5 191 3 372 -3 362 -3 361 -64 390 -23 11 -65 15 -144 15 l-113
0 7 78 c25 298 56 491 105 665 6 20 15 52 20 70 112 399 338 831 612 1167 121
148 335 361 474 473 263 210 500 350 850 502 17 7 98 36 180 63 196 65 376
108 578 138 l47 7 0 -98 c0 -114 15 -156 65 -179 49 -24 701 -24 750 0 53 25
70 71 67 183 l-2 94 47 -7 c202 -30 382 -73 578 -138 143 -47 166 -56 260 -98
61 -27 286 -138 320 -158 569 -331 1001 -781 1299 -1353 120 -229 204 -460
285 -774 29 -114 81 -494 81 -594 l0 -41 -111 0 c-124 0 -166 -13 -190 -57
-11 -21 -14 -98 -14 -389 l0 -363 34 -35 35 -36 367 0 368 0 35 34 36 33 0
369 c-1 400 1 387 -57 426 -23 15 -49 18 -145 18 l-118 0 0 48 c0 97 -37 386
-71 552 -45 220 -128 490 -204 665 -56 129 -117 254 -160 330 -15 28 -37 66
-48 85 -49 89 -213 326 -297 430 -358 442 -800 785 -1302 1009 -27 11 -68 30
-93 41 -25 11 -49 20 -54 20 -6 0 -13 5 -16 10 -4 7 282 10 850 10 806 0 856
-1 861 -17 42 -131 135 -230 269 -284 49 -19 77 -24 155 -23 87 1 101 4 170
36 99 45 175 119 221 213 33 68 34 74 34 190 0 107 -3 126 -24 170 -37 76 -77
128 -129 167 -100 76 -174 103 -282 103 -77 0 -106 -8 -199 -54 -91 -45 -187
-158 -215 -254 -5 -16 -73 -17 -1288 -15 l-1283 3 -5 129 -5 128 -39 34 -39
34 -357 0 -357 0 -39 -34 -39 -34 -5 -128 -5 -129 -1283 -3 c-1215 -2 -1283
-1 -1288 15 -3 10 -17 43 -32 73 -45 94 -132 165 -267 220 -49 20 -154 21
-220 4z m193 -249 c90 -45 135 -162 96 -253 -33 -81 -96 -123 -184 -124 -93
-1 -152 36 -186 117 -31 76 -12 178 42 226 57 49 168 65 232 34z m3540 -182
l-3 -198 -195 0 -195 0 -3 198 -2 197 200 0 200 0 -2 -197z m3344 168 c127
-81 115 -284 -21 -348 -51 -25 -152 -20 -193 8 -91 62 -122 162 -79 254 36 79
91 113 182 114 56 1 72 -3 111 -28z m-6772 -3921 l0 -200 -202 0 -203 0 0 200
0 200 203 0 202 0 0 -200z m6868 0 l-3 -200 -202 0 -203 0 0 200 0 200 206 0
205 0 -3 -200z"/>
<path d="M5130 8732 c-33 -17 -99 -147 -1067 -2078 -794 -1585 -1031 -2068
-1032 -2097 -1 -30 80 -200 435 -910 240 -479 440 -877 445 -883 5 -6 6 -14 2
-17 -3 -4 -87 -7 -185 -7 -198 0 -225 -6 -253 -60 -22 -43 -22 -717 0 -760 25
-49 60 -60 190 -60 l115 0 0 -485 c0 -537 0 -535 63 -573 44 -28 66 -28 108 1
70 47 69 37 69 575 l0 482 1380 0 1380 0 0 -486 c0 -539 -1 -533 65 -574 41
-26 69 -25 112 2 63 38 63 36 63 573 l0 485 124 0 125 0 35 34 36 33 0 367 c0
324 -2 370 -16 392 -32 49 -58 54 -259 54 -103 0 -185 3 -183 8 2 4 202 404
446 889 319 638 442 892 442 916 0 51 -2049 4147 -2087 4173 -19 12 -45 19
-77 18 -66 -1 -102 -38 -111 -116 -3 -29 -5 -831 -3 -1783 l3 -1730 22 -30
c12 -17 47 -44 78 -60 72 -38 146 -116 182 -192 26 -53 28 -68 28 -173 0 -110
-1 -118 -34 -182 -79 -161 -267 -259 -433 -227 -141 27 -248 105 -309 225 -33
66 -34 72 -34 183 0 106 2 121 28 174 36 76 110 154 182 192 31 16 66 43 78
60 l22 30 0 1775 c0 1703 -1 1777 -18 1804 -19 28 -71 56 -104 56 -10 0 -34
-8 -53 -18z m-97 -3527 c-118 -86 -200 -196 -262 -348 -32 -79 -31 -316 0
-394 56 -135 102 -206 192 -290 63 -59 190 -133 228 -133 10 0 20 -4 23 -9 20
-32 352 -32 372 0 3 5 13 9 23 9 38 0 165 74 228 133 90 84 136 155 192 290
20 51 31 193 20 280 -21 177 -123 349 -266 448 l-43 30 0 1442 0 1442 885
-1769 c487 -973 885 -1776 885 -1785 0 -9 -202 -419 -448 -911 l-447 -895
-1215 0 -1214 0 -448 895 c-246 492 -448 902 -448 910 0 8 397 810 882 1781
l883 1766 3 -1436 3 -1436 -28 -20z m2075 -2905 l2 -200 -1710 0 -1710 0 0
198 c0 109 2 201 4 203 2 2 771 3 1708 2 l1703 -3 3 -200z"/>
</g>
</svg>
