<?xml version="1.0" standalone="no"?>
<!DOCTYPE svg PUBLIC "-//W3C//DTD SVG 20010904//EN"
 "http://www.w3.org/TR/2001/REC-SVG-20010904/DTD/svg10.dtd">
<svg version="1.0" xmlns="http://www.w3.org/2000/svg"
 width="512.000000pt" height="512.000000pt" viewBox="0 0 512.000000 512.000000"
 preserveAspectRatio="xMidYMid meet">

<g transform="translate(0.000000,512.000000) scale(0.100000,-0.100000)"
fill="#000000" stroke="none">
<path d="M2525 3802 c-1882 -963 -2322 -1192 -2335 -1215 -13 -24 -13 -30 0
-54 13 -23 453 -252 2335 -1215 1354 -693 2331 -1188 2347 -1188 26 0 68 39
68 64 0 7 -214 534 -476 1172 -262 637 -479 1169 -481 1181 -3 14 166 439 472
1185 263 640 480 1172 482 1183 6 30 -33 75 -65 75 -16 0 -993 -495 -2347
-1188z"/>
</g>
</svg>
