<?xml version="1.0" standalone="no"?>
<!DOCTYPE svg PUBLIC "-//W3C//DTD SVG 20010904//EN"
 "http://www.w3.org/TR/2001/REC-SVG-20010904/DTD/svg10.dtd">
<svg version="1.0" xmlns="http://www.w3.org/2000/svg"
 width="1080.000000pt" height="1080.000000pt" viewBox="0 0 1080.000000 1080.000000"
 preserveAspectRatio="xMidYMid meet">

<g transform="translate(0.000000,1080.000000) scale(0.100000,-0.100000)"
fill="#080808" stroke="none">
<path d="M2596 9875 c-11 -8 -26 -15 -33 -15 -24 0 -161 -69 -210 -106 -142
-107 -234 -229 -302 -402 l-21 -53 0 -3918 c0 -3295 2 -3925 14 -3957 77 -219
234 -396 436 -491 36 -17 80 -34 97 -38 18 -3 35 -11 38 -16 4 -5 1200 -9
3049 -9 l3042 0 32 33 c30 31 32 37 32 111 0 67 -3 82 -25 110 -57 74 -115
210 -154 362 -14 53 -14 294 0 348 30 117 44 157 76 226 20 41 51 96 69 123
l34 47 0 3798 0 3798 -33 32 -33 32 -3044 0 c-2662 -1 -3047 -2 -3064 -15z
m384 -3844 c0 -1962 -4 -3559 -8 -3563 -5 -5 -30 -4 -56 3 -36 9 -64 9 -114 1
-37 -7 -83 -14 -102 -17 -86 -14 -101 -18 -106 -26 -3 -5 -14 -9 -24 -9 -10 0
-63 -23 -119 -51 -56 -29 -107 -49 -116 -46 -14 6 -15 343 -12 3419 2 2350 6
3427 14 3458 24 105 58 165 133 240 36 36 88 76 115 89 28 13 58 27 67 32 10
5 30 9 45 10 16 0 37 4 48 9 11 5 68 8 128 7 l107 -2 0 -3554z m5495 -6 l0
-3560 -2590 0 -2590 0 -3 3550 c-1 1953 0 3556 3 3563 3 10 527 12 2592 10
l2588 -3 0 -3560z m-137 -3880 c15 -5 9 -61 -9 -79 -5 -6 -9 -20 -9 -32 0 -13
-4 -25 -9 -28 -5 -3 -12 -25 -15 -48 -4 -24 -9 -61 -12 -83 -3 -22 -10 -44
-14 -49 -5 -5 -484 -8 -1129 -7 -1114 2 -1120 2 -1161 -19 -110 -56 -119 -186
-17 -264 l34 -26 1139 -2 1139 -3 3 -45 c2 -25 7 -49 13 -54 5 -6 9 -25 9 -42
0 -18 5 -36 10 -39 6 -3 10 -17 10 -30 0 -14 9 -41 21 -61 11 -20 18 -43 15
-50 -5 -12 -438 -14 -2808 -11 -1542 2 -2819 7 -2838 11 -36 8 -69 20 -105 39
-11 6 -29 15 -40 21 -83 44 -166 147 -204 252 -17 48 -21 83 -21 172 0 61 5
124 11 139 46 111 81 166 145 221 43 39 121 82 186 104 19 7 145 14 288 17
316 7 5348 4 5368 -4z"/>
<path d="M4004 8686 c-26 -26 -34 -42 -34 -71 0 -29 8 -45 34 -71 l34 -34
1857 0 1857 0 34 34 c47 47 47 95 0 142 l-34 34 -1857 0 -1857 0 -34 -34z"/>
<path d="M4004 8176 c-26 -26 -34 -42 -34 -71 0 -29 8 -45 34 -71 l34 -34
1182 0 1182 0 34 34 c47 47 47 95 0 142 l-34 34 -1182 0 -1182 0 -34 -34z"/>
<path d="M6505 7164 c-104 -53 -155 -134 -155 -244 0 -285 378 -371 513 -116
30 58 31 174 0 231 -72 136 -232 193 -358 129z m181 -105 c56 -27 88 -77 88
-139 0 -131 -147 -203 -252 -123 -93 71 -75 215 32 264 53 24 80 24 132 -2z"/>
<path d="M4422 7078 c-18 -18 -14 -63 6 -81 17 -15 55 -17 345 -17 314 0 328
1 347 20 25 25 26 52 2 73 -17 15 -56 17 -353 17 -247 0 -338 -3 -347 -12z"/>
<path d="M5468 6928 c-12 -11 -374 -629 -677 -1160 -31 -54 -58 -98 -61 -98
-3 0 -32 48 -65 106 -97 171 -110 169 -228 -36 -48 -82 -87 -161 -87 -175 0
-30 37 -57 67 -49 15 4 43 41 84 111 l61 104 49 -85 c27 -48 49 -90 49 -95 0
-5 -70 -130 -155 -277 -85 -147 -155 -278 -155 -290 0 -12 7 -30 16 -38 14
-14 155 -16 1404 -16 l1390 0 16 26 c21 32 27 20 -146 320 -184 318 -175 306
-213 302 -22 -2 -36 -11 -46 -29 -14 -25 -10 -34 122 -263 75 -130 137 -238
137 -241 0 -3 -89 -5 -198 -5 l-199 0 -278 483 c-153 265 -283 489 -289 499
-14 24 181 365 199 346 7 -7 69 -113 139 -235 79 -138 135 -224 147 -228 29
-9 55 2 68 31 13 30 30 -4 -167 337 -153 266 -172 290 -214 279 -10 -2 -64
-85 -130 -198 -62 -107 -115 -194 -118 -194 -3 0 -92 152 -199 338 -254 440
-255 442 -284 442 -13 0 -30 -6 -39 -12z m219 -477 l165 -284 -83 -83 -83 -84
-136 135 c-75 74 -143 135 -152 135 -8 0 -70 -33 -139 -74 -68 -41 -125 -73
-127 -71 -2 2 56 106 129 232 256 443 240 418 252 397 6 -10 84 -147 174 -303z
m-172 -442 c72 -72 139 -134 150 -139 27 -11 46 3 151 105 48 47 90 85 93 85
8 -1 592 -1012 588 -1017 -2 -2 -452 -2 -999 -1 l-996 3 248 430 249 430 188
116 c103 64 190 117 193 118 3 1 64 -58 135 -130z"/>
<path d="M3997 6502 c-21 -23 -21 -41 -1 -70 15 -22 15 -22 349 -22 290 0 336
2 349 16 19 18 21 65 4 82 -9 9 -100 12 -348 12 -314 0 -338 -1 -353 -18z"/>
<path d="M6836 6504 c-21 -21 -20 -57 2 -77 17 -15 56 -17 349 -17 307 0 331
1 346 18 21 23 22 56 1 76 -13 14 -59 16 -349 16 -290 0 -336 -2 -349 -16z"/>
<path d="M7196 6048 c-21 -30 -20 -44 4 -68 19 -19 33 -20 353 -20 311 0 335
1 350 18 22 24 21 55 -1 75 -17 15 -56 17 -355 17 -336 0 -336 0 -351 -22z"/>
<path d="M6662 5784 c-41 -28 -22 -94 28 -94 35 0 60 23 60 55 0 23 -32 55
-55 55 -6 0 -21 -7 -33 -16z"/>
<path d="M4362 4738 c-18 -18 -14 -63 6 -81 16 -15 54 -17 330 -17 299 0 313
1 332 20 25 25 26 52 2 73 -17 15 -55 17 -338 17 -236 0 -323 -3 -332 -12z"/>
<path d="M5432 4738 c-18 -18 -14 -63 6 -81 16 -15 54 -17 330 -17 299 0 313
1 332 20 25 25 26 52 2 73 -17 15 -55 17 -338 17 -236 0 -323 -3 -332 -12z"/>
<path d="M6502 4738 c-18 -18 -14 -63 6 -81 16 -15 54 -17 330 -17 299 0 313
1 332 20 25 25 26 52 2 73 -17 15 -55 17 -338 17 -236 0 -323 -3 -332 -12z"/>
<path d="M4900 4463 c-41 -15 -51 -62 -20 -93 19 -19 33 -20 340 -20 307 0
321 1 340 20 11 11 20 29 20 40 0 11 -9 29 -20 40 -19 19 -33 20 -332 19 -172
0 -320 -3 -328 -6z"/>
<path d="M5982 4454 c-27 -19 -29 -64 -4 -87 17 -15 55 -17 339 -17 297 0 321
1 336 18 24 26 21 68 -5 86 -19 14 -68 16 -333 16 -265 0 -314 -2 -333 -16z"/>
<path d="M4670 3250 c-11 -11 -20 -31 -20 -45 0 -14 9 -34 20 -45 20 -20 33
-20 1230 -20 1197 0 1210 0 1230 20 26 26 26 64 0 90 -20 20 -33 20 -1230 20
-1197 0 -1210 0 -1230 -20z"/>
<path d="M4670 2980 c-11 -11 -20 -31 -20 -45 0 -14 9 -34 20 -45 20 -20 33
-20 1230 -20 1197 0 1210 0 1230 20 26 26 26 64 0 90 -20 20 -33 20 -1230 20
-1197 0 -1210 0 -1230 -20z"/>
</g>
</svg>
