<?xml version="1.0" standalone="no"?>
<!DOCTYPE svg PUBLIC "-//W3C//DTD SVG 20010904//EN"
 "http://www.w3.org/TR/2001/REC-SVG-20010904/DTD/svg10.dtd">
<svg version="1.0" xmlns="http://www.w3.org/2000/svg"
 width="1080.000000pt" height="1080.000000pt" viewBox="0 0 1080.000000 1080.000000"
 preserveAspectRatio="xMidYMid meet">

<g transform="translate(0.000000,1080.000000) scale(0.100000,-0.100000)"
fill="#d6d6d6" stroke="none">
<path d="M5580 9048 c-135 -205 -264 -403 -288 -440 l-44 -68 21 -29 c12 -16
21 -32 21 -35 0 -4 23 -41 51 -82 l51 -76 61 94 c305 466 373 568 379 568 3 0
17 -17 29 -37 13 -21 87 -130 164 -243 78 -113 210 -306 293 -430 188 -277
480 -706 531 -780 20 -30 118 -174 218 -320 99 -146 201 -296 228 -335 27 -38
99 -144 160 -235 61 -91 144 -212 184 -270 40 -58 133 -195 207 -305 75 -110
166 -245 205 -300 38 -55 139 -203 225 -330 86 -126 233 -344 327 -482 95
-139 232 -341 306 -450 74 -109 187 -274 252 -368 64 -93 171 -251 238 -350
l121 -180 -3200 -3 -3199 -2 -49 -73 c-27 -39 -61 -93 -76 -119 l-28 -48 3507
0 3506 0 -29 43 c-16 23 -640 940 -1387 2037 -747 1097 -1419 2085 -1495 2195
-75 110 -385 566 -689 1013 -304 446 -554 812 -554 812 -1 0 -112 -168 -247
-372z"/>
<path d="M4689 8693 c-75 -115 -955 -1450 -1954 -2968 -1000 -1518 -1842
-2797 -1872 -2842 l-53 -83 592 0 593 0 77 118 78 117 -443 5 -444 5 74 115
c41 63 164 252 275 420 310 468 502 761 768 1165 134 204 307 467 385 585 78
118 256 388 395 600 139 212 326 495 415 630 88 135 250 380 359 545 109 165
284 431 389 591 106 159 262 397 347 527 85 130 158 237 161 237 3 0 33 -43
68 -95 35 -52 89 -130 120 -173 31 -42 101 -142 156 -222 54 -80 102 -149 106
-154 4 -5 38 37 74 94 l67 102 -55 81 c-30 45 -143 210 -250 367 -108 157
-207 308 -221 335 -15 28 -36 62 -49 78 l-22 27 -136 -207z"/>
<path d="M5759 8267 c-290 -448 -636 -976 -735 -1122 -125 -184 -2487 -3769
-2621 -3977 -95 -150 -302 -463 -480 -727 l-111 -166 2045 -3 c1124 -1 2962
-1 4083 0 l2038 3 -300 440 c-165 242 -303 446 -307 453 -5 9 -43 12 -154 10
l-146 -3 76 -110 c78 -114 353 -520 367 -542 6 -10 -722 -13 -3623 -13 l-3631
0 47 73 c26 39 70 109 97 154 28 45 123 189 211 320 88 130 165 246 171 258
10 18 47 75 281 425 42 63 184 279 316 480 132 201 304 462 382 580 78 118
256 388 395 600 139 212 326 495 415 630 88 135 247 376 353 535 105 160 243
369 307 465 63 96 127 197 141 224 14 27 89 141 167 255 77 113 173 254 211
313 39 59 74 108 78 108 3 0 17 -17 29 -37 13 -21 87 -130 164 -243 78 -113
210 -306 293 -430 188 -277 480 -706 531 -780 20 -30 118 -174 218 -320 99
-146 201 -296 228 -335 27 -38 99 -145 161 -236 61 -91 143 -211 180 -265 38
-54 132 -192 209 -306 77 -114 181 -266 230 -339 115 -168 326 -478 501 -737
l136 -202 144 0 c79 0 144 3 144 6 0 4 -1443 2128 -1940 2854 -69 102 -375
551 -679 998 -304 446 -554 812 -554 812 -1 0 -32 -46 -68 -103z"/>
<path d="M4817 7889 c-62 -96 -741 -1126 -1507 -2289 -766 -1163 -1417 -2152
-1447 -2197 l-53 -83 258 0 259 0 66 103 c95 148 97 136 -25 139 l-105 3 74
115 c41 63 164 252 275 420 310 468 502 761 768 1165 134 204 307 467 385 585
78 118 256 388 395 600 241 367 367 559 741 1125 91 138 169 256 173 262 6 10
-93 169 -135 217 -4 5 -59 -69 -122 -165z"/>
<path d="M5671 7446 l-72 -106 99 -148 c54 -81 120 -178 147 -217 27 -38 128
-187 225 -330 97 -143 198 -291 225 -330 27 -38 99 -144 160 -235 61 -91 144
-212 184 -270 40 -58 133 -195 207 -305 75 -110 166 -245 205 -300 38 -55 139
-203 225 -330 86 -126 233 -343 327 -482 95 -139 239 -351 321 -473 l150 -220
147 0 147 0 -897 1318 c-1219 1790 -1412 2074 -1574 2312 -76 113 -143 209
-147 214 -5 4 -40 -40 -79 -98z"/>
<path d="M5911 5698 c-500 -764 -908 -1386 -1012 -1545 -65 -100 -119 -185
-119 -188 0 -3 43 -4 96 -3 l96 3 297 453 c163 248 339 518 393 600 482 736
581 888 585 899 4 10 -16 13 -90 13 l-94 0 -152 -232z"/>
<path d="M4840 5850 l0 -70 163 -2 162 -3 0 -282 c0 -270 -1 -283 -21 -310
-50 -67 -157 -64 -259 9 -31 22 -57 38 -59 37 -25 -37 -66 -108 -66 -116 0
-16 74 -80 122 -104 31 -17 66 -24 129 -27 153 -8 242 36 296 146 l28 57 0
365 0 365 -247 3 -248 2 0 -70z"/>
<path d="M5800 4435 l0 -475 80 0 80 0 0 118 0 117 76 83 c42 45 80 82 84 82
5 0 78 -90 162 -200 l152 -200 99 0 99 0 -39 53 c-21 28 -109 148 -195 266
-154 209 -157 214 -140 235 9 12 89 102 177 200 88 97 162 181 163 187 2 5
-35 9 -87 9 -74 0 -94 -3 -108 -18 -10 -10 -112 -123 -228 -251 l-210 -232 -3
250 -2 251 -80 0 -80 0 0 -475z"/>
<path d="M8475 3113 l45 -68 -2872 -3 -2873 -2 -67 -104 c-38 -57 -71 -111
-74 -120 -6 -15 262 -16 3170 -16 l3177 0 -128 190 -128 189 -148 1 -147 0 45
-67z"/>
</g>
</svg>
