<?xml version="1.0" standalone="no"?>
<!DOCTYPE svg PUBLIC "-//W3C//DTD SVG 20010904//EN"
 "http://www.w3.org/TR/2001/REC-SVG-20010904/DTD/svg10.dtd">
<svg version="1.0" xmlns="http://www.w3.org/2000/svg"
 width="1080.000000pt" height="1080.000000pt" viewBox="0 0 1080.000000 1080.000000"
 preserveAspectRatio="xMidYMid meet">

<g transform="translate(0.000000,1080.000000) scale(0.100000,-0.100000)"
fill="#000000" stroke="none">
<path d="M5628 9118 c-106 -161 -234 -356 -285 -433 l-92 -139 28 -51 c44 -80
103 -166 113 -163 4 2 103 147 219 323 116 176 215 320 219 320 9 0 237 -328
501 -720 70 -104 229 -338 353 -520 124 -181 301 -442 395 -580 93 -137 267
-392 385 -565 118 -173 290 -425 381 -560 92 -135 268 -393 391 -575 124 -181
302 -442 395 -580 94 -137 245 -360 337 -495 375 -550 552 -811 552 -815 0 -3
-1440 -5 -3200 -5 l-3199 0 -49 -72 c-27 -40 -61 -94 -76 -120 l-28 -48 3507
0 3506 0 -64 93 c-35 50 -223 326 -417 612 -195 286 -422 619 -505 741 -82
121 -827 1216 -1655 2432 -828 1216 -1508 2212 -1512 2212 -4 0 -94 -132 -200
-292z"/>
<path d="M4624 8593 c-356 -540 -3512 -5333 -3664 -5566 l-149 -227 592 0 592
0 77 120 77 120 -445 2 -444 3 153 235 c84 129 299 456 477 725 177 270 364
553 415 630 51 77 236 358 412 625 175 267 359 546 408 620 227 346 731 1111
765 1160 20 30 100 152 177 270 319 489 756 1145 763 1145 8 0 84 -107 327
-459 68 -99 125 -182 127 -184 3 -2 34 42 71 99 l66 102 -106 156 c-59 86
-176 257 -261 381 -84 124 -154 228 -154 233 0 12 -64 107 -72 107 -4 0 -96
-134 -204 -297z"/>
<path d="M5766 8278 c-29 -46 -113 -175 -186 -288 -175 -269 -434 -665 -536
-815 -44 -66 -582 -880 -1194 -1810 -613 -929 -1206 -1829 -1318 -2000 -113
-170 -207 -317 -210 -325 -3 -8 -69 -109 -146 -224 -78 -115 -191 -284 -253
-377 l-112 -169 4085 0 4084 0 -104 153 c-57 83 -196 287 -308 452 l-205 300
-147 3 -148 3 55 -78 c137 -197 398 -586 394 -589 -2 -2 -1636 -3 -3630 -2
l-3627 3 87 135 c88 136 323 493 658 1000 100 151 231 349 290 440 60 91 251
381 425 645 174 264 356 541 405 615 49 74 231 351 405 615 371 562 565 858
733 1118 288 443 557 842 568 842 8 0 245 -342 500 -720 70 -104 229 -338 353
-520 124 -181 301 -442 395 -580 93 -137 267 -392 385 -565 118 -173 290 -425
381 -560 92 -135 268 -393 391 -575 124 -181 282 -414 352 -518 l126 -187 143
0 c79 0 143 2 143 4 0 3 -150 225 -332 494 -2369 3480 -2834 4161 -2840 4162
-5 0 -32 -37 -62 -82z"/>
<path d="M4858 7948 c-539 -818 -2815 -4274 -2914 -4425 l-133 -203 257 0 257
0 34 53 c48 71 111 176 111 181 0 3 -47 7 -105 8 l-105 3 153 235 c84 129 299
456 477 725 177 270 364 553 415 630 51 77 236 358 412 625 175 267 359 546
408 620 49 74 231 351 405 615 174 264 369 560 434 657 l116 178 -67 97 c-36
54 -69 102 -73 106 -4 5 -41 -43 -82 -105z"/>
<path d="M5671 7445 l-70 -108 150 -221 c193 -284 504 -739 739 -1084 185
-271 372 -547 697 -1024 94 -139 273 -401 397 -583 123 -181 285 -419 358
-527 l133 -197 143 -1 c78 0 142 2 142 5 0 3 -76 117 -168 253 -267 391 -732
1074 -1615 2372 -451 663 -823 1209 -828 1214 -4 5 -39 -40 -78 -99z"/>
<path d="M6054 5913 c-7 -10 -136 -207 -287 -438 -151 -231 -356 -543 -454
-693 -98 -149 -258 -394 -355 -542 -98 -149 -178 -273 -178 -275 0 -3 42 -5
94 -5 l93 0 164 250 c177 271 470 718 622 950 315 481 497 761 497 765 0 3
-42 5 -93 5 -77 0 -94 -3 -103 -17z"/>
<path d="M4840 5850 l0 -70 165 0 165 0 0 -277 c0 -261 -1 -280 -20 -311 -51
-83 -169 -79 -282 10 l-37 29 -35 -53 c-20 -29 -36 -58 -36 -64 0 -19 79 -85
129 -108 68 -31 238 -31 297 1 53 28 96 71 120 120 17 35 19 68 22 416 l3 377
-246 0 -245 0 0 -70z"/>
<path d="M5807 4904 c-4 -4 -7 -218 -7 -476 l0 -468 80 0 80 0 0 120 0 121 83
85 82 85 155 -205 155 -206 99 0 c77 0 96 3 88 13 -5 6 -94 126 -196 266 -178
241 -186 254 -172 275 9 11 89 102 180 201 90 99 162 183 159 188 -2 4 -42 7
-88 7 l-84 0 -228 -251 -228 -251 -5 248 -5 249 -70 3 c-39 1 -74 0 -78 -4z"/>
<path d="M8474 3116 c26 -35 46 -66 46 -70 0 -3 -1293 -6 -2872 -6 l-2873 0
-67 -104 c-38 -57 -71 -111 -74 -120 -6 -15 262 -16 3170 -16 l3177 0 -87 128
c-48 70 -107 155 -131 190 l-44 62 -145 0 -145 0 45 -64z"/>
</g>
</svg>
