<?xml version="1.0" standalone="no"?>
<!DOCTYPE svg PUBLIC "-//W3C//DTD SVG 20010904//EN"
 "http://www.w3.org/TR/2001/REC-SVG-20010904/DTD/svg10.dtd">
<svg version="1.0" xmlns="http://www.w3.org/2000/svg"
 width="1080.000000pt" height="1080.000000pt" viewBox="0 0 1080.000000 1080.000000"
 preserveAspectRatio="xMidYMid meet">

<g transform="translate(0.000000,1080.000000) scale(0.100000,-0.100000)"
fill="#080808" stroke="none">
<path d="M1400 9514 c-82 -17 -208 -79 -282 -139 -109 -87 -204 -242 -233
-380 -22 -105 -22 -5494 0 -5600 42 -198 187 -379 380 -471 138 -66 66 -64
1609 -64 l1399 0 -6 -127 c-7 -139 -32 -250 -64 -286 -11 -12 -32 -44 -48 -72
-44 -79 -158 -184 -245 -227 -139 -70 -114 -68 -920 -68 -803 0 -802 0 -938
-65 -193 -92 -334 -269 -378 -475 -22 -106 -15 -183 19 -218 l27 -27 3680 0
3680 0 27 27 c74 74 16 332 -113 499 -79 103 -205 189 -344 235 -51 17 -114
19 -865 24 l-810 5 -75 27 c-85 31 -192 101 -245 159 -54 60 -154 218 -166
261 -14 53 -29 190 -29 266 l0 62 1433 0 c1594 0 1506 -3 1652 69 148 74 251
178 321 326 68 142 64 -71 64 2940 0 3011 4 2798 -64 2940 -92 193 -273 338
-471 380 -103 22 -7895 21 -7995 -1z m8031 -265 c99 -48 170 -119 218 -218
l36 -76 3 -2362 2 -2363 -4290 0 -4290 0 2 2363 3 2362 36 76 c58 122 175 219
297 248 21 5 1714 8 3972 8 l3935 -2 76 -36z m257 -5556 l-3 -258 -36 -76
c-48 -99 -119 -170 -218 -218 l-76 -36 -3955 0 -3955 0 -76 36 c-99 48 -170
119 -218 218 l-36 76 -3 258 -3 257 4291 0 4291 0 -3 -257z m-3498 -922 c0
-126 16 -230 54 -348 40 -123 89 -213 157 -287 l51 -56 -1087 0 -1086 0 47 54
c137 155 214 388 214 649 l0 77 825 0 825 0 0 -89z m2402 -952 c78 -26 158
-79 202 -133 30 -36 86 -134 86 -150 0 -3 -1566 -6 -3480 -6 -1914 0 -3480 3
-3480 6 0 16 56 114 86 150 43 53 124 107 199 133 60 20 63 20 3193 21 l3133
0 61 -21z"/>
<path d="M6365 8580 c-111 -36 -203 -126 -245 -237 -18 -47 -21 -74 -18 -148
3 -78 7 -100 36 -157 117 -237 431 -290 618 -103 27 27 63 77 80 110 26 55 29
69 29 165 0 96 -3 110 -29 165 -41 84 -126 166 -201 195 -84 32 -192 36 -270
10z m210 -169 c222 -102 152 -426 -92 -425 -79 1 -144 37 -187 107 -57 92 -34
215 51 286 64 53 155 66 228 32z"/>
<path d="M3381 8424 c-26 -33 -27 -75 -2 -105 l19 -24 471 -3 471 -3 25 25
c33 33 34 84 2 114 -23 22 -24 22 -494 22 l-472 0 -20 -26z"/>
<path d="M4873 8228 c-13 -6 -56 -69 -101 -147 -44 -75 -274 -473 -512 -886
-238 -412 -436 -754 -440 -758 -4 -4 -42 54 -85 129 -44 75 -90 150 -103 166
-28 33 -69 37 -101 11 -36 -30 -254 -414 -254 -450 -1 -55 48 -91 100 -72 32
11 31 9 126 174 38 66 70 121 72 123 3 4 145 -242 145 -252 0 -4 -100 -179
-221 -389 -232 -400 -243 -424 -204 -467 l18 -20 1969 0 c1955 0 1968 0 1988
20 41 41 32 63 -202 469 -123 212 -233 396 -245 409 -23 23 -62 29 -92 12 -23
-12 -45 -64 -37 -86 4 -9 87 -157 186 -328 98 -171 182 -319 186 -329 6 -16
-10 -17 -276 -15 l-283 3 -408 707 -408 707 141 243 c77 134 141 244 143 246
1 1 89 -148 195 -332 206 -357 215 -369 274 -346 28 10 56 47 56 73 0 26 -445
796 -476 825 -30 26 -64 28 -93 5 -18 -15 -310 -509 -324 -547 -6 -15 -2 -21
-117 179 -340 593 -514 892 -529 907 -21 22 -61 30 -88 16z m284 -661 l243
-422 -120 -120 -120 -120 -188 188 c-155 154 -193 187 -216 187 -19 0 -91 -38
-203 -106 -96 -58 -176 -104 -177 -102 -5 5 526 918 533 918 3 -1 115 -191
248 -423z m-215 -663 c192 -192 198 -197 230 -190 25 5 67 40 173 146 l140
139 240 -417 c132 -229 318 -552 414 -717 95 -165 176 -306 178 -312 4 -10
-282 -13 -1411 -13 -779 0 -1416 4 -1416 8 0 4 4 12 9 18 5 5 66 108 136 229
70 121 150 261 179 310 29 50 128 221 220 380 l167 290 267 162 c147 89 269
163 272 163 2 0 93 -88 202 -196z"/>
<path d="M2780 7620 c-20 -20 -26 -63 -14 -95 17 -43 40 -45 509 -45 457 0
473 1 502 39 20 27 15 75 -10 99 -23 22 -24 22 -495 22 -459 0 -473 -1 -492
-20z"/>
<path d="M6791 7614 c-29 -37 -26 -70 9 -105 l29 -30 465 3 465 3 23 22 c31
31 30 89 -1 114 -22 18 -49 19 -496 19 l-474 0 -20 -26z"/>
<path d="M7350 7003 c-52 -19 -77 -85 -47 -124 29 -38 45 -39 502 -39 469 0
492 2 509 45 19 51 0 98 -45 114 -33 11 -889 15 -919 4z"/>
<path d="M6563 6610 c-47 -19 -58 -92 -20 -128 50 -47 131 -10 129 59 -1 54
-59 90 -109 69z"/>
<path d="M3320 5127 c-38 -19 -55 -61 -40 -98 7 -16 21 -34 31 -39 10 -6 196
-10 459 -10 263 0 449 4 459 10 31 16 45 64 29 96 -25 53 -29 54 -488 54 -323
0 -431 -3 -450 -13z"/>
<path d="M4835 5129 c-51 -28 -61 -90 -22 -127 23 -22 25 -22 474 -22 l452 0
20 26 c29 36 27 75 -5 105 l-26 24 -436 2 c-306 2 -443 -1 -457 -8z"/>
<path d="M6354 5130 c-28 -11 -54 -48 -54 -76 0 -12 9 -33 21 -48 l20 -26 453
0 453 0 21 23 c22 23 28 60 16 92 -17 43 -41 45 -486 44 -233 0 -433 -4 -444
-9z"/>
<path d="M4029 4701 c-36 -36 -37 -73 -4 -106 l24 -25 455 0 c250 0 462 3 471
6 18 7 45 55 45 79 0 9 -13 30 -29 46 l-29 29 -452 0 -452 0 -29 -29z"/>
<path d="M5595 4718 c-51 -29 -60 -84 -20 -123 l24 -25 458 0 c483 1 476 0
501 47 18 34 14 52 -17 84 l-29 29 -449 0 c-318 -1 -454 -4 -468 -12z"/>
<path d="M4901 3676 c-36 -20 -50 -55 -51 -123 0 -74 14 -109 51 -129 37 -19
953 -21 994 -2 38 17 55 58 55 128 0 70 -17 111 -55 128 -40 18 -961 16 -994
-2z"/>
</g>
</svg>
