<?xml version="1.0" standalone="no"?>
<!DOCTYPE svg PUBLIC "-//W3C//DTD SVG 20010904//EN"
 "http://www.w3.org/TR/2001/REC-SVG-20010904/DTD/svg10.dtd">
<svg version="1.0" xmlns="http://www.w3.org/2000/svg"
 width="1080.000000pt" height="1080.000000pt" viewBox="0 0 1080.000000 1080.000000"
 preserveAspectRatio="xMidYMid meet">

<g transform="translate(0.000000,1080.000000) scale(0.100000,-0.100000)"
fill="#080808" stroke="none">
<path d="M5170 5944 c0 -2811 -4 -4624 -9 -4622 -5 2 -76 89 -158 193 -82 105
-412 525 -733 935 -321 410 -755 963 -964 1230 -209 267 -470 600 -580 740
-110 140 -263 336 -341 435 -77 99 -170 217 -205 262 -62 79 -66 82 -125 97
-33 8 -109 27 -170 41 -418 103 -477 116 -482 111 -2 -2 71 -100 163 -218 92
-117 231 -294 309 -393 78 -99 339 -432 580 -740 241 -308 502 -641 580 -740
145 -185 798 -1018 1465 -1870 484 -618 552 -703 630 -799 68 -84 244 -292
265 -314 9 -11 23 1 70 60 33 40 62 75 66 78 13 9 91 109 854 1080 146 186
579 739 956 1220 80 102 408 520 729 930 321 410 643 822 716 915 74 94 243
310 377 480 134 171 240 311 237 313 -4 1 -45 -6 -91 -17 -46 -11 -127 -29
-179 -41 -52 -12 -104 -25 -115 -30 -11 -5 -60 -18 -110 -29 -152 -34 -205
-49 -221 -62 -8 -7 -43 -49 -78 -93 -34 -45 -242 -310 -462 -591 -701 -894
-1053 -1344 -1234 -1575 -97 -124 -358 -457 -580 -740 -222 -283 -467 -597
-544 -697 -78 -100 -144 -182 -148 -182 -5 -1 -8 2083 -8 4629 l0 4630 -230 0
-230 0 0 -4626z"/>
</g>
</svg>
