<?xml version="1.0" standalone="no"?>
<!DOCTYPE svg PUBLIC "-//W3C//DTD SVG 20010904//EN"
 "http://www.w3.org/TR/2001/REC-SVG-20010904/DTD/svg10.dtd">
<svg version="1.0" xmlns="http://www.w3.org/2000/svg"
 width="1080.000000pt" height="1080.000000pt" viewBox="0 0 1080.000000 1080.000000"
 preserveAspectRatio="xMidYMid meet">

<g transform="translate(0.000000,1080.000000) scale(0.100000,-0.100000)"
fill="#080808" stroke="none">
<path d="M735 8884 c-81 -20 -209 -84 -272 -136 -108 -91 -175 -195 -217 -342
l-26 -88 0 -2908 0 -2908 26 -88 c58 -200 170 -337 349 -424 156 -76 -307 -70
4805 -70 5072 0 4646 -5 4793 64 184 85 302 226 361 430 l26 88 0 2908 0 2908
-26 88 c-58 200 -170 337 -349 424 -156 76 308 70 -4810 69 -3981 -1 -4608 -3
-4660 -15z m9345 -285 c87 -40 154 -107 196 -194 l34 -69 0 -2926 0 -2925 -31
-65 c-40 -87 -107 -154 -194 -196 l-69 -34 -4616 0 -4616 0 -69 34 c-87 42
-154 109 -194 196 l-31 65 0 2925 0 2925 31 65 c40 87 107 154 194 196 l69 34
4616 0 4615 0 65 -31z"/>
<path d="M2353 8010 c-93 -19 -180 -84 -229 -172 l-29 -53 -3 -2352 c-2 -2346
-2 -2352 18 -2406 26 -70 83 -134 151 -172 l54 -30 3660 0 3660 0 49 24 c66
33 122 91 155 160 l26 56 0 2350 0 2350 -26 56 c-48 102 -134 167 -248 189
-66 12 -7175 12 -7238 0z m7230 -278 c16 -17 17 -190 17 -2317 0 -2127 -1
-2300 -17 -2317 -16 -17 -137 -18 -3605 -18 -3575 0 -3588 0 -3608 20 -20 20
-20 33 -20 2315 0 2282 0 2295 20 2315 20 20 33 20 3608 20 3468 0 3589 -1
3605 -18z"/>
<path d="M6823 7365 c-137 -42 -236 -157 -263 -303 -29 -161 62 -333 215 -407
54 -26 71 -29 160 -30 88 0 107 3 157 27 299 140 300 556 1 695 -63 29 -82 33
-150 32 -43 0 -97 -6 -120 -14z m195 -151 c145 -60 190 -255 84 -368 -35 -37
-118 -76 -162 -75 -123 1 -230 109 -230 233 0 153 168 269 308 210z"/>
<path d="M3923 7230 c-49 -20 -59 -96 -17 -129 26 -21 37 -21 481 -21 l454 0
24 25 c33 33 32 70 -4 106 l-29 29 -444 -1 c-244 0 -453 -4 -465 -9z"/>
<path d="M5370 7023 c-8 -3 -23 -12 -32 -21 -10 -8 -241 -401 -515 -874 -443
-766 -498 -858 -510 -842 -7 10 -48 78 -90 152 -42 73 -84 137 -94 142 -24 14
-61 12 -81 -3 -17 -14 -208 -334 -238 -401 -30 -65 0 -116 68 -116 38 0 55 21
138 167 38 67 71 123 74 123 6 0 140 -232 140 -242 0 -4 -97 -174 -216 -379
-134 -233 -216 -384 -216 -401 -1 -17 8 -39 22 -53 l23 -25 1912 0 c1910 0
1911 0 1933 20 46 43 37 64 -190 458 -116 202 -223 379 -237 395 -32 35 -73
36 -106 2 -14 -13 -25 -36 -25 -50 0 -14 39 -93 89 -178 49 -84 123 -213 166
-287 42 -74 86 -150 97 -167 l20 -33 -279 0 -278 0 -128 223 c-70 122 -154
267 -186 322 -80 139 -235 405 -363 627 -59 104 -108 193 -108 199 0 17 264
469 272 467 4 -2 87 -140 183 -308 97 -168 187 -315 201 -327 14 -13 35 -23
48 -23 32 0 76 43 76 76 0 24 -388 712 -447 792 -20 26 -31 32 -62 32 -24 0
-44 -7 -53 -17 -9 -10 -57 -90 -108 -178 -51 -88 -117 -204 -148 -257 -31 -54
-59 -94 -63 -90 -4 4 -48 77 -97 162 -331 576 -507 877 -521 891 -19 20 -50
29 -71 22z m270 -665 l228 -393 -116 -118 -117 -117 -180 179 c-104 105 -191
182 -205 186 -21 5 -60 -15 -200 -99 -96 -58 -176 -104 -177 -102 -2 1 113
203 255 449 235 408 258 445 271 427 7 -11 116 -197 241 -412z m-5 -818 c23 0
54 26 170 141 l143 141 35 -59 c126 -210 778 -1346 775 -1351 -2 -4 -620 -5
-1374 -2 l-1370 5 337 584 c186 322 346 592 356 602 10 9 130 85 268 168 l250
151 190 -190 c159 -158 196 -190 220 -190z"/>
<path d="M3322 6434 c-17 -11 -22 -25 -22 -57 0 -89 -12 -87 505 -87 l446 0
24 25 c16 15 25 36 25 55 0 19 -9 40 -25 55 l-24 25 -453 0 c-394 0 -456 -2
-476 -16z"/>
<path d="M7236 6429 c-20 -16 -26 -29 -26 -59 0 -30 6 -43 26 -59 26 -21 37
-21 475 -21 l448 0 27 23 c20 17 27 33 27 57 0 24 -7 40 -27 57 l-27 23 -448
0 c-438 0 -449 0 -475 -21z"/>
<path d="M7755 5818 c-51 -27 -60 -84 -20 -123 l24 -25 456 0 456 0 24 25 c40
40 30 96 -22 123 -30 16 -889 16 -918 0z"/>
<path d="M6986 5429 c-46 -36 -28 -119 29 -133 29 -7 79 15 89 39 12 33 5 66
-19 90 -30 30 -64 32 -99 4z"/>
<path d="M3826 3989 c-37 -29 -37 -89 0 -118 26 -21 37 -21 454 -21 417 0 428
0 454 21 37 29 37 89 0 118 -26 21 -37 21 -454 21 -417 0 -428 0 -454 -21z"/>
<path d="M5315 3998 c-61 -35 -60 -104 2 -136 15 -9 141 -12 438 -12 352 0
420 2 445 15 53 27 53 103 0 130 -25 13 -92 15 -447 15 -296 -1 -424 -4 -438
-12z"/>
<path d="M6776 3989 c-35 -28 -36 -80 -1 -114 l24 -25 429 0 c419 0 430 0 456
21 20 16 26 29 26 59 0 30 -6 43 -26 59 -26 21 -37 21 -454 21 -417 0 -428 0
-454 -21z"/>
<path d="M4539 3597 c-41 -31 -46 -80 -11 -119 14 -17 49 -18 472 -18 423 0
458 1 472 18 35 39 30 88 -11 119 -23 18 -899 18 -922 0z"/>
<path d="M6035 3578 c-29 -34 -28 -67 2 -100 15 -17 51 -18 473 -18 423 0 458
1 472 18 9 9 19 27 22 39 8 26 -16 78 -39 87 -9 3 -216 6 -460 6 l-443 0 -27
-32z"/>
<path d="M1182 7970 c-49 -30 -72 -75 -72 -143 0 -104 58 -168 158 -175 51 -3
61 -1 99 27 79 58 104 149 60 226 -34 60 -78 85 -151 85 -43 0 -70 -6 -94 -20z"/>
<path d="M1182 7370 c-50 -31 -72 -75 -72 -146 0 -73 25 -117 85 -151 86 -49
188 -14 236 79 38 74 11 167 -60 215 -45 31 -141 32 -189 3z"/>
<path d="M1217 6786 c-75 -27 -107 -76 -107 -163 0 -67 23 -113 71 -142 148
-90 327 65 250 217 -10 20 -28 45 -39 55 -23 21 -87 46 -117 46 -11 0 -37 -6
-58 -13z"/>
<path d="M1131 5974 c-117 -31 -244 -129 -310 -238 -89 -149 -95 -357 -13
-510 34 -66 152 -184 218 -218 144 -77 344 -77 488 0 28 15 83 58 122 97 109
108 154 213 154 365 0 152 -45 257 -154 365 -79 78 -143 117 -231 140 -73 19
-202 18 -274 -1z m267 -284 c174 -100 172 -346 -3 -442 -42 -23 -62 -28 -125
-28 -65 0 -82 4 -128 30 -173 100 -173 340 0 440 46 26 63 30 128 30 65 0 82
-4 128 -30z"/>
<path d="M924 4332 c-12 -9 -27 -27 -33 -39 -8 -15 -11 -214 -11 -677 l0 -656
29 -32 29 -33 332 0 332 0 29 33 29 32 0 664 0 664 -31 31 -31 31 -326 0
c-295 0 -329 -2 -348 -18z m476 -707 l0 -465 -130 0 -130 0 0 465 0 465 130 0
130 0 0 -465z"/>
</g>
</svg>
